<?xml version="1.0" encoding="utf-8"?>
<!-- Generator: Adobe Illustrator 15.0.0, SVG Export Plug-In . SVG Version: 6.00 Build 0)  -->
<!DOCTYPE svg PUBLIC "-//W3C//DTD SVG 1.1//EN" "http://www.w3.org/Graphics/SVG/1.1/DTD/svg11.dtd">
<svg version="1.1" id="Livello_1" xmlns="http://www.w3.org/2000/svg" xmlns:xlink="http://www.w3.org/1999/xlink" x="0px" y="0px"
	 width="841.891px" height="595.281px" viewBox="0 0 841.891 595.281" enable-background="new 0 0 841.891 595.281"
	 xml:space="preserve">
<g>
	<g>
		<g>
			<path fill="#00ACE6" d="M568.317,357.594c0,0,25.551,12.142,44.594,0.547c0,0-5.623-2.869-5.414-4.172
				c0,0,6.062,2.379,10.072,1.547c4.016-0.827,18.264-11.444,20.066-14.336c0,0-37.957,12.292-105.412-10.84
				c0,0,13.322,14.66,30.071,24.201c0,0-18.188-3.418-31.984-25.038c0,0-40.673-15.905-76.576-38.851
				C453.734,290.652,514.591,374.024,568.317,357.594z"/>
			<path fill="#00ACE6" d="M417.747,268.333c0,0,7.309,6.307,11.769,19.445c4.465,13.13,2.884,1.636,2.884,1.636
				c-1.59-15.062,2.767-1.625,2.767-1.625c5.706,23.824,13.302,23.228,13.302,23.228c-5.577-4.404-3.78-14.745-2.674-16.559
				c1.101-1.81,2.42,0.542,2.42,0.542c9.843,22.203,29.249,26.096,29.249,26.096c-11.015-7.043-25.329-31.288-25.329-31.288
				C451.479,289.539,417.747,268.333,417.747,268.333z"/>
		</g>
		<g>
			<path fill="#00ACE6" d="M459.272,286.484c121.276,77.119,177.906,54.227,177.906,54.227
				c-27.334-4.377-102.886-39.489-110.84-42.221c-7.955-2.738-15.153,4.771-15.106,2.342c0.044-2.428,8.751-7.518,8.751-7.518
				C489.478,281.445,459.272,286.485,459.272,286.484z"/>
			<path fill="#00ACE6" d="M433.541,269.861l24.655,15.913c4.334-3.054,15.731-3.68,17.261-3.749
				c0.164-0.819-0.603-3.376-14.815-5.614c-20.585-3.238-8.025-5.678-2.312-5.341c5.714,0.34,1.375-1.78,1.375-1.78
				c-7.728-4.427-16.292-3.169-17.118-3.009C441.762,266.447,433.545,269.859,433.541,269.861z"/>
			<path fill="#00ACE6" d="M475.643,282.016c0,0-0.069,0.003-0.181,0.009c-0.035,0.172-0.107,0.269-0.107,0.269L475.643,282.016z"/>
		</g>
		<path fill="#00ACE6" d="M390.449,247.533c58.271,43.263,114.007,69.994,114.007,69.994c49.228,22.509,74.964,23.242,74.964,23.242
			s-26.772-3.863-73.61-26.572c-0.482-0.249-0.962-0.498-1.442-0.748c0,0-48.958-25.04-101.464-63.825
			C394.448,243.375,390.45,247.534,390.449,247.533z"/>
	</g>
</g>
</svg>
